<svg width="544" height="209" fill="none" xmlns="http://www.w3.org/2000/svg"><mask id="a" style="mask-type:alpha" maskUnits="userSpaceOnUse" x="0" y="0" width="544" height="209"><path d="M0 12C0 5.373 5.373 0 12 0h520c6.627 0 12 5.373 12 12v185c0 6.627-5.373 12-12 12H12c-6.627 0-12-5.373-12-12V12Z" fill="#20293A"/></mask><g mask="url(#a)" stroke="#364153" stroke-opacity=".5"><path d="M543.603 0c3.691 44.104-52.946 130.404-168.762 159.328-64.83 16.191-158.623 8.218-225.866 15.419C67.816 183.438 17.434 206.871 0 225.287"/><path d="M549.37 8.566c3.691 44.104-52.946 130.404-168.762 159.328-64.83 16.191-158.623 8.218-225.866 15.419-81.159 8.691-131.541 32.124-148.975 50.54"/><path d="M555.136 17.132c3.692 44.104-52.945 130.404-168.761 159.328-64.83 16.191-158.624 8.218-225.866 15.419-81.16 8.691-131.542 32.124-148.975 50.54"/><path d="M560.903 25.698c3.691 44.104-52.945 130.404-168.762 159.328-64.829 16.191-158.623 8.218-225.865 15.419-81.16 8.691-131.542 32.124-148.976 50.54"/><path d="M566.67 34.264c3.691 44.104-52.946 130.404-168.762 159.328-64.829 16.191-158.623 8.219-225.866 15.419-81.159 8.691-131.541 32.124-148.975 50.54"/><path d="M572.437 42.83c3.691 44.104-52.946 130.404-168.762 159.328-64.83 16.191-158.623 8.219-225.866 15.419-81.159 8.691-131.541 32.124-148.975 50.54"/><path d="M578.204 51.396C581.895 95.5 525.258 181.8 409.442 210.725c-64.83 16.19-158.624 8.218-225.866 15.418-81.159 8.691-131.542 32.124-148.975 50.54"/><path d="M583.97 59.962c3.692 44.104-52.945 130.404-168.761 159.329-64.83 16.19-158.624 8.218-225.866 15.418-81.159 8.692-131.542 32.124-148.975 50.54"/><path d="M589.737 68.528c3.691 44.104-52.945 130.404-168.762 159.329-64.829 16.19-158.623 8.218-225.865 15.418-81.16 8.692-131.542 32.124-148.976 50.54"/><path d="M595.504 77.094c3.691 44.104-52.946 130.404-168.762 159.329-64.829 16.19-158.623 8.218-225.866 15.418-81.159 8.692-131.541 32.124-148.975 50.54"/><path d="M602.232 85.66c3.691 44.104-52.946 130.404-168.762 159.329-64.83 16.191-158.623 8.218-225.866 15.419-81.159 8.691-131.541 32.123-148.975 50.539"/><path d="M608.96 94.226c3.691 44.104-52.946 130.404-168.762 159.329-64.83 16.191-158.623 8.218-225.866 15.419-81.159 8.691-131.541 32.123-148.975 50.539"/></g></svg>
