<svg width="24" height="24" fill="none" xmlns="http://www.w3.org/2000/svg"><path d="m3 15.2-.707-.707-.707.707.707.707L3 15.2Zm6.8 0v1-1Zm5-4a1 1 0 1 0-2 0h2Zm-8.507-.707-4 4 1.414 1.414 4-4-1.414-1.414Zm-4 5.414 4 4 1.414-1.414-4-4-1.414 1.414ZM3 16.2h6.8v-2H3v2Zm6.8 0a5 5 0 0 0 5-5h-2a3 3 0 0 1-3 3v2Z" fill="#4A5567"/><path d="m21.5 8.8.707.707.707-.707-.707-.707-.707.707Zm-7.3 0v1-1Zm-5 4a1 1 0 1 0 2 0h-2Zm9.007.707 4-4-1.414-1.414-4 4 1.414 1.414Zm4-5.414-4-4-1.414 1.414 4 4 1.414-1.414ZM21.5 7.8h-7.3v2h7.3v-2Zm-7.3 0a5 5 0 0 0-5 5h2a3 3 0 0 1 3-3v-2Z" fill="#4A5567"/></svg>
