<svg width="114" height="24" fill="none" xmlns="http://www.w3.org/2000/svg"><path d="M0 .432C0 .194.194 0 .434 0H3.69c.24 0 .434.194.434.432v3.244a.433.433 0 0 1-.434.432H.434A.433.433 0 0 1 0 3.676V.432ZM19.97.432c0-.238.195-.432.434-.432h3.256c.24 0 .434.194.434.432v3.244a.433.433 0 0 1-.434.432h-3.256a.433.433 0 0 1-.434-.432V.432ZM4.993 5.405c0-.238.194-.432.434-.432h3.256c.24 0 .434.194.434.432V8.65a.433.433 0 0 1-.434.432H5.427a.433.433 0 0 1-.434-.432V5.405ZM14.978 5.405c0-.238.194-.432.434-.432h3.256c.24 0 .434.194.434.432V8.65a.433.433 0 0 1-.434.432h-3.256a.433.433 0 0 1-.434-.432V5.405ZM4.993 10.378c0-.238.194-.432.434-.432h3.256c.24 0 .434.194.434.432v3.244a.433.433 0 0 1-.434.432H5.427a.433.433 0 0 1-.434-.432v-3.244ZM9.985 10.378c0-.238.195-.432.434-.432h3.256c.24 0 .434.194.434.432v3.244a.433.433 0 0 1-.434.432H10.42a.433.433 0 0 1-.434-.432v-3.244ZM0 15.351c0-.239.194-.432.434-.432H3.69c.24 0 .434.194.434.432v3.244a.433.433 0 0 1-.434.432H.434A.433.433 0 0 1 0 18.595V15.35ZM9.985 15.351c0-.239.195-.432.434-.432h3.256c.24 0 .434.194.434.432v3.244a.433.433 0 0 1-.434.432H10.42a.433.433 0 0 1-.434-.432V15.35ZM14.978 15.351c0-.239.194-.432.434-.432h3.256c.24 0 .434.194.434.432v3.244a.433.433 0 0 1-.434.432h-3.256a.433.433 0 0 1-.434-.432V15.35ZM4.993 20.324c0-.239.194-.432.434-.432h3.256c.24 0 .434.194.434.432v3.244a.433.433 0 0 1-.434.432H5.427a.433.433 0 0 1-.434-.432v-3.244ZM14.978 20.324c0-.239.194-.432.434-.432h3.256c.24 0 .434.194.434.432v3.244a.433.433 0 0 1-.434.432h-3.256a.433.433 0 0 1-.434-.432v-3.244ZM19.97 20.324c0-.239.195-.432.434-.432h3.256c.24 0 .434.194.434.432v3.244a.433.433 0 0 1-.434.432h-3.256a.433.433 0 0 1-.434-.432v-3.244ZM41.444 19.392a6.77 6.77 0 0 1-2.699-.538 6.984 6.984 0 0 1-2.197-1.478 7.188 7.188 0 0 1-1.484-2.208 7.055 7.055 0 0 1-.52-2.707c0-.96.173-1.856.52-2.688a7.122 7.122 0 0 1 1.465-2.189 6.632 6.632 0 0 1 2.178-1.478 6.771 6.771 0 0 1 2.698-.538c.964 0 1.857.18 2.68.538a6.58 6.58 0 0 1 2.197 1.478 6.645 6.645 0 0 1 1.465 2.208c.36.832.54 1.728.54 2.688 0 .96-.18 1.862-.54 2.707a6.695 6.695 0 0 1-1.465 2.189 6.759 6.759 0 0 1-2.178 1.478 6.585 6.585 0 0 1-2.66.538Zm6.168.73-6.072-6.048 1.427-1.421 6.072 6.048-1.427 1.42Zm-6.207-2.842c.913 0 1.71-.205 2.39-.614a4.277 4.277 0 0 0 1.62-1.69c.398-.73.597-1.568.597-2.515a5.11 5.11 0 0 0-.347-1.92 4.276 4.276 0 0 0-.944-1.517 4.139 4.139 0 0 0-1.465-.998c-.553-.23-1.17-.346-1.85-.346-.9 0-1.697.205-2.39.614a4.317 4.317 0 0 0-1.62 1.67c-.385.718-.578 1.55-.578 2.497 0 .704.11 1.357.328 1.958.23.589.546 1.095.944 1.517.411.422.9.755 1.465.998.565.23 1.182.346 1.85.346ZM52.36 13.498v-1.824h3.412c.68 0 1.208-.173 1.58-.519.386-.358.579-.851.579-1.478 0-.563-.187-1.037-.56-1.421-.372-.384-.899-.576-1.58-.576H52.36V5.76h3.527c.849 0 1.594.173 2.236.518a3.6 3.6 0 0 1 1.485 1.383c.36.576.54 1.235.54 1.977 0 .781-.18 1.46-.54 2.036a3.515 3.515 0 0 1-1.485 1.344c-.642.32-1.387.48-2.236.48H52.36ZM50.837 19.2V5.76h2.217V19.2h-2.217Zm7.402 0-4.722-5.837 2.062-.749 5.455 6.586h-2.795ZM68.445 19.392a7.04 7.04 0 0 1-2.718-.518 6.816 6.816 0 0 1-2.159-1.479 6.804 6.804 0 0 1-1.426-2.208 7.294 7.294 0 0 1-.501-2.707c0-.96.167-1.856.5-2.688.335-.845.81-1.58 1.427-2.208a6.816 6.816 0 0 1 2.159-1.478 6.82 6.82 0 0 1 2.718-.538c1.092 0 2.037.18 2.833.538a7.117 7.117 0 0 1 2.12 1.459l-1.503 1.497a4.121 4.121 0 0 0-1.465-1.017c-.565-.243-1.227-.365-1.985-.365-.668 0-1.279.115-1.831.346a4.181 4.181 0 0 0-1.446.998 4.425 4.425 0 0 0-.925 1.517 5.536 5.536 0 0 0-.328 1.939c0 .704.11 1.35.328 1.94.218.588.527 1.1.925 1.535a4.31 4.31 0 0 0 1.446.98c.552.23 1.163.345 1.83.345.823 0 1.517-.122 2.083-.365a4.338 4.338 0 0 0 1.465-1.037l1.503 1.498a6.758 6.758 0 0 1-2.178 1.478c-.835.359-1.793.538-2.872.538ZM80.941 19.392a6.77 6.77 0 0 1-2.698-.538 6.985 6.985 0 0 1-2.198-1.478 7.188 7.188 0 0 1-1.484-2.208 7.055 7.055 0 0 1-.52-2.707c0-.96.173-1.856.52-2.688a7.122 7.122 0 0 1 1.465-2.189 6.631 6.631 0 0 1 2.178-1.478 6.77 6.77 0 0 1 2.699-.538c.963 0 1.856.18 2.679.538a6.58 6.58 0 0 1 2.197 1.478 6.643 6.643 0 0 1 1.465 2.208c.36.832.54 1.728.54 2.688 0 .96-.18 1.862-.54 2.707a6.694 6.694 0 0 1-1.465 2.189 6.758 6.758 0 0 1-2.178 1.478 6.585 6.585 0 0 1-2.66.538Zm-.038-2.112c.912 0 1.709-.205 2.39-.614a4.275 4.275 0 0 0 1.619-1.69c.398-.73.597-1.568.597-2.515a5.11 5.11 0 0 0-.346-1.92 4.277 4.277 0 0 0-.945-1.517 4.14 4.14 0 0 0-1.465-.998c-.552-.23-1.17-.346-1.85-.346-.9 0-1.697.205-2.39.614a4.317 4.317 0 0 0-1.62 1.67c-.385.718-.578 1.55-.578 2.497 0 .704.11 1.357.328 1.958.231.589.546 1.095.944 1.517.412.422.9.755 1.465.998.566.23 1.182.346 1.85.346ZM91.368 19.2v-2.016h3.547c.925 0 1.735-.198 2.429-.595a4.141 4.141 0 0 0 1.638-1.651c.398-.717.598-1.543.598-2.477 0-.922-.2-1.735-.598-2.439a4.273 4.273 0 0 0-1.658-1.65c-.694-.398-1.497-.596-2.409-.596h-3.547V5.76h3.605c.976 0 1.882.173 2.718.518A6.412 6.412 0 0 1 99.869 7.7a6.333 6.333 0 0 1 1.465 2.131c.347.807.52 1.69.52 2.65a6.68 6.68 0 0 1-1.966 4.8 6.817 6.817 0 0 1-2.178 1.42c-.835.334-1.735.5-2.699.5h-3.643Zm-1.522 0V5.76h2.216V19.2h-2.216ZM103.921 19.2V5.76h2.217V19.2h-2.217Zm1.523 0v-2.016H113V19.2h-7.556Zm0-5.894v-1.94h6.901v1.94h-6.901Zm0-5.53V5.76h7.46v2.016h-7.46Z" fill="#F2F5F9"/></svg>
