<svg width="189" height="40" fill="none" xmlns="http://www.w3.org/2000/svg"><path d="M0 .72A.72.72 0 0 1 .72 0h5.406a.72.72 0 0 1 .72.72v5.406a.72.72 0 0 1-.72.72H.721A.72.72 0 0 1 0 6.127V.721ZM33.153.72a.72.72 0 0 1 .72-.72h5.406A.72.72 0 0 1 40 .72v5.406a.72.72 0 0 1-.72.72h-5.406a.72.72 0 0 1-.72-.72V.721ZM8.288 9.009a.72.72 0 0 1 .721-.72h5.405a.72.72 0 0 1 .721.72v5.405a.72.72 0 0 1-.72.721H9.008a.72.72 0 0 1-.72-.72V9.008ZM24.865 9.009a.72.72 0 0 1 .72-.72h5.406a.72.72 0 0 1 .72.72v5.405a.72.72 0 0 1-.72.721h-5.405a.72.72 0 0 1-.721-.72V9.008ZM8.288 17.297a.72.72 0 0 1 .721-.72h5.405a.72.72 0 0 1 .721.72v5.406a.72.72 0 0 1-.72.72H9.008a.72.72 0 0 1-.72-.72v-5.406ZM16.577 17.297a.72.72 0 0 1 .72-.72h5.406a.72.72 0 0 1 .72.72v5.406a.72.72 0 0 1-.72.72h-5.406a.72.72 0 0 1-.72-.72v-5.406ZM0 25.586a.72.72 0 0 1 .72-.721h5.406a.72.72 0 0 1 .72.72v5.406a.72.72 0 0 1-.72.72H.721a.72.72 0 0 1-.721-.72v-5.405ZM16.577 25.586a.72.72 0 0 1 .72-.721h5.406a.72.72 0 0 1 .72.72v5.406a.72.72 0 0 1-.72.72h-5.406a.72.72 0 0 1-.72-.72v-5.405ZM24.865 25.586a.72.72 0 0 1 .72-.721h5.406a.72.72 0 0 1 .72.72v5.406a.72.72 0 0 1-.72.72h-5.405a.72.72 0 0 1-.721-.72v-5.405ZM8.288 33.874a.72.72 0 0 1 .721-.72h5.405a.72.72 0 0 1 .721.72v5.405a.72.72 0 0 1-.72.721H9.008a.72.72 0 0 1-.72-.72v-5.406ZM24.865 33.874a.72.72 0 0 1 .72-.72h5.406a.72.72 0 0 1 .72.72v5.405a.72.72 0 0 1-.72.721h-5.405a.72.72 0 0 1-.721-.72v-5.406ZM33.153 33.874a.72.72 0 0 1 .72-.72h5.406a.72.72 0 0 1 .721.72v5.405a.72.72 0 0 1-.72.721h-5.406a.72.72 0 0 1-.72-.72v-5.406ZM68.802 32.32c-1.6 0-3.093-.299-4.48-.896a11.592 11.592 0 0 1-3.648-2.464 11.982 11.982 0 0 1-2.464-3.68c-.576-1.408-.864-2.912-.864-4.512 0-1.6.288-3.093.864-4.48a11.87 11.87 0 0 1 2.432-3.648 11.006 11.006 0 0 1 3.616-2.464c1.387-.597 2.88-.896 4.48-.896 1.6 0 3.083.299 4.448.896a10.921 10.921 0 0 1 3.648 2.464 11.075 11.075 0 0 1 2.432 3.68c.598 1.387.896 2.88.896 4.48 0 1.6-.298 3.104-.896 4.512a11.159 11.159 0 0 1-2.432 3.648 11.218 11.218 0 0 1-3.616 2.464c-1.365.597-2.837.896-4.416.896Zm10.24 1.216-10.08-10.08 2.368-2.368 10.08 10.08-2.368 2.368ZM68.738 28.8c1.515 0 2.838-.341 3.968-1.024a7.114 7.114 0 0 0 2.688-2.816c.662-1.216.992-2.613.992-4.192 0-1.173-.192-2.24-.576-3.2a7.133 7.133 0 0 0-1.568-2.528 6.872 6.872 0 0 0-2.432-1.664c-.917-.384-1.941-.576-3.072-.576-1.493 0-2.816.341-3.968 1.024-1.13.661-2.026 1.59-2.688 2.784-.64 1.195-.96 2.581-.96 4.16 0 1.173.182 2.261.544 3.264.384.981.907 1.824 1.568 2.528a7.473 7.473 0 0 0 2.432 1.664c.939.384 1.963.576 3.072.576ZM86.924 22.496v-3.04h5.664c1.131 0 2.006-.288 2.624-.864.64-.597.96-1.419.96-2.464 0-.939-.309-1.728-.928-2.368-.618-.64-1.493-.96-2.624-.96h-5.696V9.6h5.856c1.408 0 2.646.288 3.712.864 1.067.555 1.888 1.323 2.464 2.304.598.96.896 2.059.896 3.296 0 1.301-.298 2.432-.896 3.392-.576.96-1.397 1.707-2.464 2.24-1.066.533-2.304.8-3.712.8h-5.856ZM84.396 32V9.6h3.68V32h-3.68Zm12.288 0-7.84-9.728 3.424-1.248L101.324 32h-4.64ZM113.627 32.32c-1.621 0-3.125-.288-4.512-.864a11.318 11.318 0 0 1-3.584-2.464 11.353 11.353 0 0 1-2.368-3.68c-.554-1.408-.832-2.912-.832-4.512 0-1.6.278-3.093.832-4.48a10.917 10.917 0 0 1 2.368-3.68 11.318 11.318 0 0 1 3.584-2.464c1.387-.597 2.891-.896 4.512-.896 1.814 0 3.382.299 4.704.896a11.809 11.809 0 0 1 3.52 2.432l-2.496 2.496a6.84 6.84 0 0 0-2.432-1.696c-.938-.405-2.037-.608-3.296-.608-1.109 0-2.122.192-3.04.576a6.948 6.948 0 0 0-2.4 1.664c-.661.704-1.173 1.547-1.536 2.528-.362.981-.544 2.059-.544 3.232s.182 2.25.544 3.232a7.743 7.743 0 0 0 1.536 2.56 7.161 7.161 0 0 0 2.4 1.632c.918.384 1.931.576 3.04.576 1.366 0 2.518-.203 3.456-.608a7.198 7.198 0 0 0 2.432-1.728l2.496 2.496a11.214 11.214 0 0 1-3.616 2.464c-1.386.597-2.976.896-4.768.896ZM134.373 32.32c-1.6 0-3.093-.299-4.48-.896a11.586 11.586 0 0 1-3.648-2.464 11.984 11.984 0 0 1-2.464-3.68c-.576-1.408-.864-2.912-.864-4.512 0-1.6.288-3.093.864-4.48a11.866 11.866 0 0 1 2.432-3.648 11.007 11.007 0 0 1 3.616-2.464c1.387-.597 2.88-.896 4.48-.896 1.6 0 3.083.299 4.448.896a10.913 10.913 0 0 1 3.648 2.464 11.08 11.08 0 0 1 2.432 3.68c.597 1.387.896 2.88.896 4.48 0 1.6-.299 3.104-.896 4.512a11.163 11.163 0 0 1-2.432 3.648 11.214 11.214 0 0 1-3.616 2.464c-1.365.597-2.837.896-4.416.896Zm-.064-3.52c1.515 0 2.837-.341 3.968-1.024a7.114 7.114 0 0 0 2.688-2.816c.661-1.216.992-2.613.992-4.192 0-1.173-.192-2.24-.576-3.2a7.132 7.132 0 0 0-1.568-2.528 6.87 6.87 0 0 0-2.432-1.664c-.917-.384-1.941-.576-3.072-.576-1.493 0-2.816.341-3.968 1.024-1.131.661-2.027 1.59-2.688 2.784-.64 1.195-.96 2.581-.96 4.16 0 1.173.181 2.261.544 3.264.384.981.907 1.824 1.568 2.528a7.474 7.474 0 0 0 2.432 1.664c.939.384 1.963.576 3.072.576ZM151.683 32v-3.36h5.888c1.536 0 2.88-.33 4.032-.992a6.892 6.892 0 0 0 2.72-2.752c.661-1.195.992-2.57.992-4.128 0-1.536-.331-2.89-.992-4.064a7.109 7.109 0 0 0-2.752-2.752c-1.152-.661-2.485-.992-4-.992h-5.888V9.6h5.984c1.621 0 3.125.288 4.512.864a10.64 10.64 0 0 1 3.616 2.368 10.548 10.548 0 0 1 2.432 3.552c.576 1.344.864 2.816.864 4.416 0 1.579-.288 3.05-.864 4.416a11.137 11.137 0 0 1-2.4 3.584 11.307 11.307 0 0 1-3.616 2.368c-1.387.555-2.88.832-4.48.832h-6.048Zm-2.528 0V9.6h3.68V32h-3.68ZM172.523 32V9.6h3.68V32h-3.68Zm2.528 0v-3.36h12.544V32h-12.544Zm0-9.824v-3.232h11.456v3.232h-11.456Zm0-9.216V9.6h12.384v3.36h-12.384Z" fill="#F2F5F9"/></svg>
