<svg width="150" height="32" fill="none" xmlns="http://www.w3.org/2000/svg"><path d="M0 .577C0 .258.255 0 .57 0h4.27c.315 0 .57.258.57.577V4.9a.573.573 0 0 1-.57.576H.57A.573.573 0 0 1 0 4.901V.577ZM26.195.577c0-.319.255-.577.57-.577h4.27c.315 0 .57.258.57.577V4.9a.573.573 0 0 1-.57.576h-4.27a.573.573 0 0 1-.57-.576V.577ZM6.549 7.207c0-.318.255-.576.57-.576h4.27c.315 0 .57.258.57.576v4.324a.573.573 0 0 1-.57.577H7.12a.573.573 0 0 1-.57-.577V7.207ZM19.646 7.207c0-.318.255-.576.57-.576h4.27c.315 0 .57.258.57.576v4.324a.573.573 0 0 1-.57.577h-4.27a.573.573 0 0 1-.57-.577V7.207ZM6.549 13.838c0-.319.255-.577.57-.577h4.27c.315 0 .57.258.57.577v4.324a.573.573 0 0 1-.57.577H7.12a.573.573 0 0 1-.57-.577v-4.324ZM13.098 13.838c0-.319.254-.577.569-.577h4.27c.315 0 .57.258.57.577v4.324a.573.573 0 0 1-.57.577h-4.27a.573.573 0 0 1-.57-.577v-4.324ZM0 20.468c0-.318.255-.576.57-.576h4.27c.315 0 .57.258.57.576v4.325a.573.573 0 0 1-.57.576H.57a.573.573 0 0 1-.57-.576v-4.325ZM13.098 20.468c0-.318.254-.576.569-.576h4.27c.315 0 .57.258.57.576v4.325a.573.573 0 0 1-.57.576h-4.27a.573.573 0 0 1-.57-.576v-4.325ZM19.646 20.468c0-.318.255-.576.57-.576h4.27c.315 0 .57.258.57.576v4.325a.573.573 0 0 1-.57.576h-4.27a.573.573 0 0 1-.57-.576v-4.325ZM6.549 27.1c0-.32.255-.577.57-.577h4.27c.315 0 .57.258.57.576v4.324a.573.573 0 0 1-.57.577H7.12a.573.573 0 0 1-.57-.577V27.1ZM19.646 27.1c0-.32.255-.577.57-.577h4.27c.315 0 .57.258.57.576v4.324a.573.573 0 0 1-.57.577h-4.27a.573.573 0 0 1-.57-.577V27.1ZM26.195 27.1c0-.32.255-.577.57-.577h4.27c.315 0 .57.258.57.576v4.324a.573.573 0 0 1-.57.577h-4.27a.573.573 0 0 1-.57-.577V27.1ZM54.362 25.856a8.757 8.757 0 0 1-3.54-.717 9.154 9.154 0 0 1-2.882-1.971 9.593 9.593 0 0 1-1.947-2.944 9.542 9.542 0 0 1-.682-3.61c0-1.28.227-2.474.682-3.584a9.504 9.504 0 0 1 1.922-2.918 8.693 8.693 0 0 1 2.857-1.971 8.757 8.757 0 0 1 3.54-.717c1.264 0 2.436.239 3.514.717a8.624 8.624 0 0 1 2.883 1.971 8.87 8.87 0 0 1 1.921 2.944c.472 1.11.708 2.304.708 3.584 0 1.28-.236 2.483-.708 3.61a8.935 8.935 0 0 1-1.921 2.918 8.86 8.86 0 0 1-2.857 1.971 8.519 8.519 0 0 1-3.49.717Zm-.05-2.816c1.197 0 2.242-.273 3.135-.82a5.661 5.661 0 0 0 2.124-2.252c.522-.973.784-2.09.784-3.354 0-.938-.152-1.792-.455-2.56a5.716 5.716 0 0 0-1.24-2.022 5.428 5.428 0 0 0-1.92-1.331c-.726-.307-1.535-.461-2.428-.461-1.18 0-2.225.273-3.135.82-.894.528-1.602 1.27-2.124 2.226-.506.956-.759 2.065-.759 3.328 0 .939.144 1.81.43 2.612.304.785.717 1.459 1.239 2.022a5.902 5.902 0 0 0 1.922 1.331 6.28 6.28 0 0 0 2.427.461Zm8.141 3.789-7.964-8.064 1.87-1.895 7.965 8.064-1.87 1.895Zm6.228-8.832v-2.432h4.475c.894 0 1.585-.23 2.074-.691.505-.478.758-1.135.758-1.972 0-.75-.244-1.382-.733-1.894s-1.18-.768-2.073-.768h-4.5V7.68h4.626c1.112 0 2.09.23 2.933.691.843.444 1.492 1.058 1.947 1.843.472.768.708 1.647.708 2.637 0 1.041-.236 1.946-.708 2.714-.455.768-1.104 1.365-1.947 1.792-.843.426-1.82.64-2.933.64h-4.627ZM66.684 25.6V7.68h2.907V25.6h-2.907Zm9.709 0-6.195-7.782 2.706-.999 7.154 8.781h-3.665Zm13.386.256c-1.28 0-2.469-.23-3.565-.691a8.94 8.94 0 0 1-2.831-1.971 9.096 9.096 0 0 1-1.871-2.944 9.876 9.876 0 0 1-.658-3.61c0-1.28.22-2.475.658-3.584a8.745 8.745 0 0 1 1.87-2.944 8.94 8.94 0 0 1 2.832-1.971c1.096-.478 2.285-.717 3.565-.717 1.434 0 2.673.239 3.717.717a9.329 9.329 0 0 1 2.781 1.945l-1.972 1.997a5.403 5.403 0 0 0-1.921-1.357c-.742-.324-1.61-.486-2.605-.486-.876 0-1.676.154-2.402.46a5.49 5.49 0 0 0-1.896 1.332 5.925 5.925 0 0 0-1.213 2.022c-.287.785-.43 1.647-.43 2.586 0 .939.144 1.8.43 2.586a6.21 6.21 0 0 0 1.213 2.048c.54.563 1.172.998 1.896 1.305.726.307 1.526.461 2.402.461 1.08 0 1.99-.162 2.731-.486a5.69 5.69 0 0 0 1.922-1.383l1.972 1.997a8.857 8.857 0 0 1-2.857 1.971c-1.095.478-2.352.717-3.768.717Zm16.392 0a8.753 8.753 0 0 1-3.539-.717 9.151 9.151 0 0 1-2.883-1.971 9.595 9.595 0 0 1-1.947-2.944 9.544 9.544 0 0 1-.682-3.61c0-1.28.227-2.474.682-3.584a9.5 9.5 0 0 1 1.922-2.918 8.692 8.692 0 0 1 2.857-1.971 8.76 8.76 0 0 1 3.54-.717c1.264 0 2.436.239 3.514.717a8.623 8.623 0 0 1 2.883 1.971 8.88 8.88 0 0 1 1.921 2.944c.472 1.11.708 2.304.708 3.584 0 1.28-.236 2.483-.708 3.61a8.946 8.946 0 0 1-1.921 2.918 8.87 8.87 0 0 1-2.858 1.971 8.513 8.513 0 0 1-3.489.717Zm-.05-2.816c1.197 0 2.241-.273 3.135-.82a5.666 5.666 0 0 0 2.124-2.252c.522-.973.784-2.09.784-3.354 0-.938-.152-1.792-.456-2.56a5.713 5.713 0 0 0-1.238-2.022 5.431 5.431 0 0 0-1.922-1.331c-.725-.307-1.534-.461-2.427-.461-1.18 0-2.225.273-3.135.82-.894.528-1.602 1.27-2.124 2.226-.506.956-.759 2.065-.759 3.328 0 .939.143 1.81.43 2.612a6.25 6.25 0 0 0 1.239 2.022 5.914 5.914 0 0 0 1.921 1.331c.742.307 1.552.461 2.428.461Zm13.727 2.56v-2.688h4.653c1.213 0 2.275-.265 3.185-.794a5.484 5.484 0 0 0 2.15-2.201c.522-.956.783-2.057.783-3.303 0-1.228-.261-2.312-.783-3.25a5.658 5.658 0 0 0-2.175-2.202c-.91-.53-1.963-.794-3.16-.794h-4.653V7.68h4.728c1.281 0 2.47.23 3.565.691a8.41 8.41 0 0 1 2.858 1.895 8.45 8.45 0 0 1 1.921 2.841c.455 1.075.683 2.253.683 3.533 0 1.263-.228 2.44-.683 3.533a8.917 8.917 0 0 1-1.896 2.867 8.921 8.921 0 0 1-2.857 1.894c-1.096.444-2.276.666-3.54.666h-4.779Zm-1.997 0V7.68h2.908V25.6h-2.908Zm18.464 0V7.68h2.907V25.6h-2.907Zm1.997 0v-2.688h9.911V25.6h-9.911Zm0-7.86v-2.585h9.052v2.586h-9.052Zm0-7.372V7.68h9.785v2.688h-9.785Z" fill="#3662E3"/></svg>
