<svg width="800" height="800" viewBox="0 0 64 64" xmlns="http://www.w3.org/2000/svg" xml:space="preserve" style="fill-rule:evenodd;clip-rule:evenodd;stroke-linejoin:round;stroke-miterlimit:2"><path style="fill:none" d="M0 0h1280v800H0z" transform="translate(-512 -320)"/><path d="M321.714 559.995c61.738-.595 122.862-26.17 166.814-69.605 52.2-51.586 79.086-127.916 69.709-200.78C542.165 164.734 439.517 80 320.172 80c-90.668 0-178.797 56.719-217.449 138.967-29.592 62.968-29.644 138.985 0 202.066 38.378 81.665 125.058 138.086 215.907 138.962 1.028.003 2.056.003 3.084 0Zm-2.827-40.001c-92.218-.889-178.254-72.2-195.36-163.628-12.06-64.461 10.707-134.216 58.131-179.991 55.378-53.452 142.405-71.361 214.766-41.061 64.75 27.114 113.208 90.054 122.138 159.404 7.654 59.44-13.677 121.736-55.596 164.649-36.766 37.637-88.33 60.114-141.509 60.627-.857.003-1.713.003-2.57 0Z" style="fill-rule:nonzero" transform="translate(-.058 -.007) scale(.10009)"/><circle cx="543.992" cy="352" r="14.13" transform="translate(-620.995 -390.527) scale(1.20036)"/></svg>