<svg width="144" height="16" fill="none" xmlns="http://www.w3.org/2000/svg"><path d="M4.83 15.5.29 1.38h3.12l3.32 10.86H5.51L8.75 1.38h2.46l3.24 10.86h-1.2l3.3-10.86h3.1L15.11 15.5h-2.46L9.39 4.64h1.16L7.29 15.5H4.83Zm19.47.22c-1 0-1.907-.22-2.72-.66a5.136 5.136 0 0 1-1.9-1.84c-.467-.773-.7-1.64-.7-2.6 0-.96.233-1.82.7-2.58.466-.76 1.1-1.36 1.9-1.8.8-.453 1.706-.68 2.72-.68 1.013 0 1.92.22 2.72.66.8.44 1.433 1.047 1.9 1.82.466.76.7 1.62.7 2.58s-.234 1.827-.7 2.6a5.137 5.137 0 0 1-1.9 1.84c-.8.44-1.707.66-2.72.66Zm0-2.78c.44 0 .826-.093 1.16-.28.333-.2.586-.473.76-.82.186-.36.28-.767.28-1.22 0-.453-.094-.847-.28-1.18a1.961 1.961 0 0 0-.78-.8c-.32-.2-.7-.3-1.14-.3-.427 0-.807.1-1.14.3a1.96 1.96 0 0 0-.78.8c-.187.347-.28.747-.28 1.2 0 .44.093.84.28 1.2.186.347.446.62.78.82.333.187.713.28 1.14.28Zm6.643 2.56V5.78h3.06v9.72h-3.06Zm3.06-5.34-1.28-1c.253-1.133.68-2.013 1.28-2.64.6-.627 1.433-.94 2.5-.94.467 0 .873.073 1.22.22.36.133.673.347.94.64l-1.82 2.3c-.133-.147-.3-.26-.5-.34-.2-.08-.427-.12-.68-.12-.507 0-.913.16-1.22.48-.293.307-.44.773-.44 1.4Zm9.142 5.54c-.92 0-1.74-.22-2.46-.66a4.75 4.75 0 0 1-1.68-1.8c-.4-.76-.6-1.627-.6-2.6 0-.973.2-1.84.6-2.6a4.75 4.75 0 0 1 1.68-1.8c.72-.44 1.54-.66 2.46-.66.666 0 1.266.127 1.8.38.546.253.993.607 1.34 1.06.36.44.56.947.6 1.52v4.1a2.905 2.905 0 0 1-.58 1.56c-.347.453-.794.82-1.34 1.1-.547.267-1.154.4-1.82.4Zm.54-2.76c.44 0 .82-.093 1.14-.28.32-.2.573-.473.76-.82.186-.347.28-.747.28-1.2 0-.453-.094-.847-.28-1.18a1.96 1.96 0 0 0-.76-.82c-.32-.2-.694-.3-1.12-.3-.427 0-.807.1-1.14.3-.32.2-.58.473-.78.82-.187.347-.28.74-.28 1.18 0 .44.093.833.28 1.18.186.347.446.62.78.82.333.2.706.3 1.12.3Zm5.06 2.56h-3v-2.62l.46-2.36-.52-2.36V.98h3.06V15.5Zm10.083.22c-1.16 0-2.16-.187-3-.56-.827-.387-1.587-.967-2.28-1.74l2.04-2.02c.453.52.953.927 1.5 1.22.56.28 1.206.42 1.94.42.666 0 1.18-.12 1.54-.36.373-.24.56-.573.56-1 0-.387-.12-.7-.36-.94s-.56-.447-.96-.62c-.387-.173-.82-.34-1.3-.5-.467-.16-.934-.34-1.4-.54a6.724 6.724 0 0 1-1.3-.78 3.72 3.72 0 0 1-.94-1.18c-.24-.48-.36-1.08-.36-1.8 0-.867.206-1.613.62-2.24.426-.627 1.013-1.1 1.76-1.42.746-.333 1.606-.5 2.58-.5.986 0 1.886.173 2.7.52.826.347 1.506.82 2.04 1.42l-2.04 2.02c-.427-.44-.86-.767-1.3-.98-.427-.213-.914-.32-1.46-.32-.547 0-.98.107-1.3.32-.32.2-.48.493-.48.88 0 .36.12.653.36.88.24.213.553.4.94.56.4.16.833.32 1.3.48.48.16.953.347 1.42.56.466.213.893.487 1.28.82.4.32.72.733.96 1.24.24.493.36 1.107.36 1.84 0 1.347-.48 2.407-1.44 3.18-.96.76-2.287 1.14-3.98 1.14Zm11.581 0c-1 0-1.906-.22-2.72-.66a4.947 4.947 0 0 1-1.92-1.82c-.466-.773-.7-1.64-.7-2.6 0-.973.234-1.84.7-2.6a5.095 5.095 0 0 1 1.94-1.82c.814-.44 1.727-.66 2.74-.66.76 0 1.454.133 2.08.4.64.253 1.207.64 1.7 1.16l-1.96 1.96a2.078 2.078 0 0 0-.8-.56 2.679 2.679 0 0 0-1.02-.18c-.44 0-.833.1-1.18.3-.333.187-.6.453-.8.8-.186.333-.28.727-.28 1.18 0 .453.094.853.28 1.2.2.347.474.62.82.82.347.2.734.3 1.16.3.4 0 .754-.067 1.06-.2.32-.147.594-.347.82-.6l1.94 1.96c-.506.533-1.08.94-1.72 1.22-.64.267-1.353.4-2.14.4Zm5.022-.22V5.78h3.06v9.72h-3.06Zm3.06-5.34-1.28-1c.254-1.133.68-2.013 1.28-2.64.6-.627 1.433-.94 2.5-.94.467 0 .874.073 1.22.22.36.133.674.347.94.64l-1.82 2.3c-.133-.147-.3-.26-.5-.34-.2-.08-.427-.12-.68-.12-.507 0-.913.16-1.22.48-.293.307-.44.773-.44 1.4Zm9.062 5.54c-.893 0-1.693-.22-2.4-.66a4.806 4.806 0 0 1-1.66-1.8c-.4-.76-.6-1.627-.6-2.6 0-.973.2-1.84.6-2.6.413-.76.967-1.36 1.66-1.8.707-.44 1.507-.66 2.4-.66.653 0 1.24.127 1.76.38.533.253.967.607 1.3 1.06.333.44.52.947.56 1.52v4.2a2.886 2.886 0 0 1-.56 1.54c-.32.44-.747.787-1.28 1.04a4.097 4.097 0 0 1-1.78.38Zm.62-2.76c.653 0 1.18-.213 1.58-.64.4-.44.6-.993.6-1.66 0-.453-.093-.853-.28-1.2a1.837 1.837 0 0 0-.76-.8c-.32-.2-.693-.3-1.12-.3a2.142 2.142 0 0 0-1.92 1.1c-.187.347-.28.747-.28 1.2 0 .44.093.833.28 1.18.187.347.447.62.78.82.333.2.707.3 1.12.3Zm2.06 2.56v-2.62l.46-2.36-.46-2.36V5.78h3v9.72h-3Zm4.954 0V5.78h3.06v9.72h-3.06Zm6.22 0V9.82c0-.493-.153-.873-.46-1.14-.293-.28-.66-.42-1.1-.42-.306 0-.58.067-.82.2-.24.12-.433.293-.58.52-.133.227-.2.507-.2.84l-1.18-.52c0-.773.167-1.433.5-1.98a3.31 3.31 0 0 1 1.36-1.28c.574-.307 1.22-.46 1.94-.46.68 0 1.287.153 1.82.46.547.307.98.733 1.3 1.28.32.547.48 1.2.48 1.96v6.22h-3.06Zm6.22 0V9.82c0-.493-.153-.873-.46-1.14-.293-.28-.66-.42-1.1-.42-.306 0-.58.067-.82.2-.24.12-.433.293-.58.52-.133.227-.2.507-.2.84l-1.76-.24c.027-.827.22-1.533.58-2.12.374-.6.86-1.06 1.46-1.38.614-.333 1.3-.5 2.06-.5.747 0 1.407.16 1.98.48a3.335 3.335 0 0 1 1.38 1.34c.347.573.52 1.267.52 2.08v6.02h-3.06Zm10.421.2a4.052 4.052 0 0 1-1.8-.4 3.898 3.898 0 0 1-1.34-1.1 3.054 3.054 0 0 1-.6-1.56v-4.1c.054-.573.254-1.08.6-1.52a3.523 3.523 0 0 1 1.34-1.06 4.23 4.23 0 0 1 1.8-.38c.92 0 1.734.22 2.44.66.72.44 1.28 1.04 1.68 1.8.414.76.62 1.627.62 2.6 0 .973-.206 1.84-.62 2.6-.4.76-.96 1.36-1.68 1.8-.706.44-1.52.66-2.44.66Zm-5.6-.2V.98h3.06v7.18l-.5 2.36.46 2.36v2.62h-3.02Zm5.06-2.56c.427 0 .8-.1 1.12-.3.334-.2.594-.473.78-.82.187-.347.28-.74.28-1.18 0-.453-.093-.853-.28-1.2a1.953 1.953 0 0 0-.78-.8c-.32-.2-.693-.3-1.12-.3-.426 0-.806.1-1.14.3a1.965 1.965 0 0 0-.78.8c-.173.347-.26.747-.26 1.2 0 .453.094.853.28 1.2.187.347.44.62.76.82.334.187.714.28 1.14.28Zm6.635 2.56V.98h3.06V15.5h-3.06Zm5.015 0V.98h3.06V15.5h-3.06Zm9.815.22c-1.054 0-1.994-.213-2.82-.64a4.937 4.937 0 0 1-1.92-1.82c-.467-.773-.7-1.647-.7-2.62 0-.973.226-1.84.68-2.6a5.019 5.019 0 0 1 1.88-1.82c.786-.44 1.673-.66 2.66-.66.96 0 1.806.207 2.54.62a4.45 4.45 0 0 1 1.72 1.72c.426.733.64 1.573.64 2.52 0 .173-.014.36-.04.56a5.168 5.168 0 0 1-.1.66l-8.38.02v-2.1l7.08-.02-1.32.88c-.014-.56-.1-1.02-.26-1.38-.16-.373-.4-.653-.72-.84-.307-.2-.687-.3-1.14-.3-.48 0-.9.113-1.26.34-.347.213-.62.52-.82.92-.187.4-.28.887-.28 1.46s.1 1.067.3 1.48c.213.4.506.713.88.94.386.213.84.32 1.36.32.48 0 .913-.08 1.3-.24a2.977 2.977 0 0 0 1.02-.76l1.68 1.68c-.48.56-1.06.98-1.74 1.26-.68.28-1.427.42-2.24.42Z" fill="url(#a)"/><defs><linearGradient id="a" x1="-70.824" y1="7.5" x2="230.5" y2="7.5" gradientUnits="userSpaceOnUse"><stop stop-color="#7429C6"/><stop offset="1" stop-color="#C951E7"/></linearGradient></defs></svg>
