<svg width="101" height="30" fill="none" xmlns="http://www.w3.org/2000/svg"><path fill="#fff" d="m15.218 0 7.02 6.919-7.02 6.918-7.02-6.918zM23.417 8.081 30.437 15l-7.02 6.919-7.02-6.92 7.02-6.918ZM15.218 16.163l7.02 6.918-7.02 6.92-7.02-6.92zM7.02 8.081 14.039 15l-7.02 6.919L0 15z"/><ellipse cx="15.511" cy="14.711" rx="4.39" ry="4.327" fill="#B4436D"/><path d="M41.509 24V6.24h8.208c1.152 0 2.12.2 2.904.6.8.4 1.408.936 1.824 1.608.416.656.624 1.384.624 2.184 0 .784-.144 1.44-.432 1.968-.288.512-.64.928-1.056 1.248-.4.304-.792.512-1.176.624v.192c.432.096.912.304 1.44.624.528.32.984.776 1.368 1.368.384.592.576 1.36.576 2.304 0 .832-.2 1.632-.6 2.4-.384.768-1.016 1.4-1.896 1.896-.864.496-1.992.744-3.384.744h-8.4Zm7.584-14.664h-3.888v4.128h3.888c.832 0 1.44-.2 1.824-.6.384-.4.576-.888.576-1.464 0-.56-.192-1.04-.576-1.44-.384-.416-.992-.624-1.824-.624Zm.288 6.96h-4.176v4.608h4.176c.944 0 1.624-.224 2.04-.672a2.347 2.347 0 0 0 .648-1.656c0-.624-.216-1.16-.648-1.608-.416-.448-1.096-.672-2.04-.672Zm15 7.944c-1.12 0-2.089-.184-2.904-.552-.816-.384-1.488-.888-2.016-1.512a6.867 6.867 0 0 1-1.2-2.136 7.841 7.841 0 0 1-.024-4.776 6.74 6.74 0 0 1 1.152-2.136 5.54 5.54 0 0 1 1.991-1.512c.816-.384 1.776-.576 2.88-.576 1.168 0 2.2.256 3.096.768.913.512 1.625 1.272 2.137 2.28.511.992.767 2.2.767 3.624v.888h-8.712c.048.768.313 1.432.792 1.992.496.56 1.176.84 2.04.84.496 0 .897-.072 1.2-.216.32-.16.569-.336.745-.528.175-.208.296-.392.36-.552l.096-.24h3.36l-.12.456c-.064.288-.209.648-.433 1.08-.223.432-.551.864-.983 1.296-.416.432-.969.792-1.657 1.08-.688.288-1.543.432-2.567.432Zm-2.833-7.848h5.209c-.049-.88-.313-1.536-.793-1.968-.48-.432-1.072-.648-1.775-.648-.704 0-1.304.232-1.8.696-.497.448-.777 1.088-.84 1.92ZM78.98 24.24c-1.12 0-2.096-.184-2.928-.552-.832-.384-1.52-.888-2.064-1.512a6.353 6.353 0 0 1-1.224-2.112 7.485 7.485 0 0 1-.408-2.424c0-.816.136-1.616.408-2.4a6.353 6.353 0 0 1 1.224-2.112c.544-.64 1.232-1.144 2.064-1.512.832-.384 1.808-.576 2.928-.576 1.136 0 2.072.168 2.808.504.736.32 1.32.728 1.752 1.224.448.48.776.968.984 1.464.208.48.336.888.384 1.224l.096.48h-3.408l-.096-.288c-.048-.208-.16-.44-.336-.696-.16-.272-.408-.504-.744-.696-.336-.208-.784-.312-1.344-.312-.688 0-1.264.176-1.728.528a3.058 3.058 0 0 0-1.008 1.344 4.866 4.866 0 0 0-.336 1.824c0 .656.112 1.264.336 1.824.224.56.56 1.016 1.008 1.368.464.336 1.04.504 1.728.504.56 0 1.008-.096 1.344-.288.336-.208.584-.44.744-.696.176-.272.288-.504.336-.696l.096-.312h3.408l-.096.504c-.048.32-.176.728-.384 1.224-.208.48-.536.968-.984 1.464-.432.48-1.016.888-1.752 1.224-.736.32-1.672.48-2.808.48ZM90.56 24l-4.656-12.72h3.648l2.976 8.616 2.856-8.616h3.672L94.376 24H90.56Z" fill="#fff"/></svg>
