<svg width="96" height="19" fill="none" xmlns="http://www.w3.org/2000/svg"><path d="M39.082 10.188 36.968 18h-2.646l-1.232-5.068L31.816 18h-2.632l-2.128-7.812h2.394l1.106 5.586 1.316-5.586h2.534l1.33 5.558 1.092-5.558h2.254Zm2.117-.812c-.42 0-.765-.121-1.036-.364a1.234 1.234 0 0 1-.392-.924c0-.373.13-.681.392-.924.27-.252.616-.378 1.036-.378.41 0 .747.126 1.008.378.27.243.406.55.406.924 0 .364-.135.672-.406.924-.261.243-.597.364-1.008.364Zm1.19.812V18h-2.394v-7.812h2.394Zm6.495-.084c.914 0 1.642.299 2.184.896.55.588.826 1.4.826 2.436V18h-2.38v-4.242c0-.523-.136-.929-.406-1.218-.27-.29-.635-.434-1.092-.434-.457 0-.822.145-1.092.434-.27.29-.406.695-.406 1.218V18h-2.394v-7.812h2.394v1.036a2.47 2.47 0 0 1 .98-.812c.41-.205.873-.308 1.386-.308Zm4.197 3.976c0-.803.15-1.507.448-2.114.308-.607.724-1.073 1.246-1.4a3.234 3.234 0 0 1 1.75-.49c.514 0 .98.107 1.4.322.43.215.766.504 1.009.868V7.64h2.394V18h-2.395v-1.12a2.428 2.428 0 0 1-.965.896c-.411.224-.892.336-1.443.336a3.234 3.234 0 0 1-1.75-.49c-.522-.336-.938-.807-1.245-1.414-.3-.616-.449-1.325-.449-2.128Zm5.852.014c0-.597-.167-1.069-.504-1.414a1.593 1.593 0 0 0-1.204-.518c-.476 0-.882.173-1.218.518-.326.336-.49.803-.49 1.4 0 .597.164 1.073.49 1.428.337.345.742.518 1.218.518.477 0 .878-.173 1.204-.518.337-.345.505-.817.505-1.414Zm6.52-2.8c.224-.364.546-.658.966-.882.42-.224.901-.336 1.442-.336.644 0 1.228.163 1.75.49.523.327.934.793 1.232 1.4.308.607.462 1.311.462 2.114 0 .803-.154 1.512-.462 2.128-.298.607-.709 1.078-1.232 1.414a3.234 3.234 0 0 1-1.75.49c-.55 0-1.03-.107-1.442-.322a2.598 2.598 0 0 1-.966-.882V18H63.06V7.64h2.394v3.654Zm3.416 2.786c0-.597-.168-1.064-.504-1.4a1.609 1.609 0 0 0-1.218-.518c-.476 0-.882.173-1.218.518-.326.345-.49.817-.49 1.414s.164 1.069.49 1.414c.336.345.742.518 1.218.518s.882-.173 1.218-.518c.336-.355.504-.83.504-1.428Zm8.452-3.976c.915 0 1.643.299 2.184.896.551.588.826 1.4.826 2.436V18h-2.38v-4.242c0-.523-.135-.929-.406-1.218-.27-.29-.634-.434-1.092-.434-.457 0-.821.145-1.092.434-.27.29-.406.695-.406 1.218V18h-2.394v-7.812h2.394v1.036a2.47 2.47 0 0 1 .98-.812c.411-.205.873-.308 1.386-.308Zm7.068 1.19c.224-.364.546-.658.966-.882.42-.224.9-.336 1.442-.336.644 0 1.227.163 1.75.49.523.327.933.793 1.232 1.4.308.607.462 1.311.462 2.114 0 .803-.154 1.512-.462 2.128-.299.607-.71 1.078-1.232 1.414a3.234 3.234 0 0 1-1.75.49c-.55 0-1.031-.107-1.442-.322a2.598 2.598 0 0 1-.966-.882V18h-2.394V7.64h2.394v3.654Zm3.416 2.786c0-.597-.168-1.064-.504-1.4a1.609 1.609 0 0 0-1.218-.518c-.476 0-.882.173-1.218.518-.327.345-.49.817-.49 1.414s.163 1.069.49 1.414c.336.345.742.518 1.218.518s.882-.173 1.218-.518c.336-.355.504-.83.504-1.428ZM8.227 4.5c1.155-2 4.042-2 5.196 0l5.63 9.75c1.154 2-.29 4.5-2.599 4.5H5.197c-2.31 0-3.753-2.5-2.598-4.5l5.63-9.75Z" fill="#EB5757"/></svg>
